<?xml version="1.0" encoding="utf-8"?>
<!-- Generator: Adobe Illustrator 25.2.1, SVG Export Plug-In . SVG Version: 6.00 Build 0)  -->
<svg version="1.1" id="Layer_1" xmlns="http://www.w3.org/2000/svg" xmlns:xlink="http://www.w3.org/1999/xlink" x="0px" y="0px"
	 viewBox="0 0 45 37" style="enable-background:new 0 0 45 37;" xml:space="preserve">
<style type="text/css">
	.st0{fill:#FFFFFF;}
	.st1{fill:#020203;}
	.st2{fill:#FFFFFF;}
	.st3{fill:#FFFFFF;}
	.st4{fill:#FFFFFF;}
	.st5{fill:#FFFFFF;}
	.st6{fill:none;stroke:#020203;stroke-width:0.5727;stroke-miterlimit:10;}
</style>
<g>
	<path class="st0" d="M44.44,18.09c0,13.42-9.82,17.96-21.94,17.96S0.56,31.1,0.56,18.09c0-11.97,9.82-17.14,21.94-17.14
		S44.44,6.53,44.44,18.09z"/>
	<path class="st1" d="M22.5,0.66C8.59,0.66,0.28,7.18,0.28,18.09c0,11.6,8.1,18.25,22.22,18.25c10.14,0,22.22-3.17,22.22-18.25
		C44.72,7.34,36.21,0.66,22.5,0.66z M34.16,24.21c0.94-1.51,1.51-3.45,1.51-5.95c0-2.16-0.59-4.04-1.67-5.58l6.06-5.38
		c2.52,2.6,4.09,6.13,4.09,10.79c0,5.32-1.57,9.11-4.03,11.78L34.16,24.21z M9.9,18.26c0-6.12,4.71-9.78,12.6-9.78
		c6.09,0,12.6,2.57,12.6,9.78c0,8.49-6.85,10.27-12.6,10.27C17.79,28.52,9.9,27.19,9.9,18.26z M22.5,1.23
		c6.33,0,12.93,1.63,17.15,5.66l-5.98,5.31C31.48,9.46,27.6,7.9,22.5,7.9c-5.4,0-9.36,1.67-11.46,4.63L5.26,6.87
		C8.96,3.23,14.86,1.23,22.5,1.23z M0.85,18.09c0-4.39,1.42-8.03,4.03-10.8l5.83,5.72c-0.9,1.47-1.38,3.24-1.38,5.25
		c0,2.24,0.51,4.16,1.49,5.74l-5.79,5.89C2.52,27.25,0.85,23.47,0.85,18.09z M5.42,30.29l5.71-5.81c2.11,2.98,6,4.61,11.36,4.61
		c4.15,0,8.84-0.9,11.35-4.39l5.87,5.57c-4.33,4.32-11.13,5.49-17.22,5.49C17.39,35.77,10.1,34.84,5.42,30.29z"/>
	<path class="st0" d="M35.1,18.26c0,8.48-6.85,10.26-12.6,10.26c-4.71,0-12.6-1.33-12.6-10.26c0-6.13,4.71-9.78,12.6-9.78
		C28.59,8.48,35.1,11.04,35.1,18.26z"/>
	<path class="st2" d="M39.72,30.28c-4.33,4.32-11.13,5.49-17.22,5.49c-5.11,0-12.4-0.93-17.08-5.48l5.72-5.8
		c2.11,2.98,5.99,4.61,11.36,4.61c4.15,0,8.84-0.9,11.35-4.4L39.72,30.28z"/>
	<path class="st3" d="M44.15,18.09c0,5.32-1.57,9.1-4.03,11.77l-5.96-5.65c0.94-1.51,1.51-3.45,1.51-5.95
		c0-2.16-0.59-4.04-1.67-5.59l6.06-5.37C42.58,9.89,44.15,13.43,44.15,18.09z"/>
	<path class="st4" d="M39.65,6.89l-5.98,5.31C31.48,9.46,27.6,7.9,22.5,7.9c-5.4,0-9.36,1.67-11.46,4.63L5.26,6.87
		c3.7-3.64,9.6-5.64,17.24-5.64C28.83,1.23,35.43,2.86,39.65,6.89z"/>
	<path class="st5" d="M10.81,24l-5.79,5.89c-2.5-2.64-4.17-6.42-4.17-11.8c0-4.39,1.42-8.03,4.03-10.8l5.83,5.72
		c-0.9,1.47-1.38,3.23-1.38,5.25C9.33,20.49,9.84,22.42,10.81,24z"/>
</g>
</svg>
