<?xml version="1.0" encoding="utf-8"?>
<!-- Generator: Adobe Illustrator 25.2.1, SVG Export Plug-In . SVG Version: 6.00 Build 0)  -->
<svg version="1.1" id="Layer_1" xmlns="http://www.w3.org/2000/svg" xmlns:xlink="http://www.w3.org/1999/xlink" x="0px" y="0px"
	 viewBox="0 0 45 37" style="enable-background:new 0 0 45 37;" xml:space="preserve">
<style type="text/css">
	.st0{fill:#FFFFFF;}
	.st1{fill:#020203;}
	.st2{fill:#2B4B9B;}
	.st3{fill:#E52421;}
	.st4{fill:#F3E600;}
	.st5{fill:#66B32E;}
	.st6{fill:none;stroke:#020203;stroke-width:0.5727;stroke-miterlimit:10;}
</style>
<g>
	<path class="st1" d="M22.5,0.66C8.59,0.66,0.28,7.18,0.28,18.09c0,11.6,8.1,18.25,22.22,18.25c10.14,0,22.22-3.17,22.22-18.25
		C44.72,7.34,36.21,0.66,22.5,0.66z M10.5,18.54c0-3.66,4.48-5.85,12-5.85c5.8,0,12,1.54,12,5.85c0,5.08-6.52,6.14-12,6.14
		C18.02,24.69,10.5,23.89,10.5,18.54z M35.07,18.54c0-0.67-0.15-1.3-0.42-1.88l6.06-8.65c2.13,2.52,3.44,5.83,3.44,10.07
		c0,5.09-1.43,8.78-3.71,11.42l-5.96-8.47C34.86,20.3,35.07,19.47,35.07,18.54z M22.5,1.23c6.68,0,13.65,1.81,17.82,6.34l-5.98,8.53
		c-1.61-2.5-5.84-3.98-11.84-3.98c-6.21,0-10.43,1.5-11.94,4.1L4.6,7.6C8.23,3.51,14.38,1.23,22.5,1.23z M4.2,8.03l6.07,8.78
		c-0.22,0.54-0.34,1.11-0.34,1.73c0,0.89,0.2,1.69,0.56,2.4l-5.75,8.64c-2.35-2.62-3.9-6.32-3.9-11.5C0.85,14.09,2.02,10.7,4.2,8.03
		z M22.5,35.77c-5.21,0-12.68-0.96-17.35-5.75l5.66-8.52c1.67,2.45,5.67,3.76,11.68,3.76c6.05,0,10-1.26,11.66-3.68l5.88,8.37
		C35.74,34.54,28.74,35.77,22.5,35.77z"/>
	<g>
		<path class="st0" d="M34.5,18.54c0,5.08-6.53,6.15-12,6.15c-4.48,0-12-0.8-12-6.15c0-3.66,4.49-5.84,12-5.84
			C28.3,12.7,34.5,14.23,34.5,18.54z"/>
		<path class="st2" d="M40.05,29.95c-4.31,4.59-11.31,5.82-17.55,5.82c-5.21,0-12.68-0.96-17.35-5.75l5.67-8.52
			c1.66,2.44,5.67,3.76,11.68,3.76c6.05,0,10-1.26,11.66-3.68L40.05,29.95z"/>
		<path class="st3" d="M44.15,18.09c0,5.09-1.43,8.77-3.71,11.42l-5.96-8.47c0.38-0.74,0.59-1.57,0.59-2.5
			c0-0.67-0.15-1.3-0.42-1.88l6.06-8.65C42.84,10.53,44.15,13.84,44.15,18.09z"/>
		<path class="st4" d="M40.32,7.58l-5.98,8.52c-1.61-2.5-5.84-3.98-11.84-3.98c-6.21,0-10.43,1.5-11.94,4.1L4.6,7.6
			c3.63-4.09,9.78-6.37,17.9-6.37C29.18,1.23,36.15,3.04,40.32,7.58z"/>
		<path class="st5" d="M10.49,20.95l-5.74,8.64c-2.35-2.62-3.9-6.32-3.9-11.5c0-4,1.17-7.39,3.35-10.06l6.07,8.78
			c-0.21,0.54-0.34,1.12-0.34,1.73C9.93,19.43,10.13,20.23,10.49,20.95z"/>
	</g>
</g>
</svg>
